# xmcd
#
# Track frame offsets: 
#        152
#        14597
#        35057
#        50095
#        64915
#        83382
#        96152
#        118552
#        134222
#        146845
#        165945
#        183165
#        200807
#        214305
#        235622
#        249897
#        265852
#        283292
#        296402
#        309225
#
# Disc length: 4377 seconds
#
# Revision: 7
# Processed by: cddbd v1.5.2PL0 Copyright (c) Steve Scherf et al.
# Submitted via: ExactAudioCopy v1.0b3
#
DISCID=2d111714
DTITLE=Guy Clark - The Essential Guy Clark
DYEAR=1997
DGENRE=Country
TTITLE0=Texas 1947
TTITLE1=Desperadoes Waiting For A Train
TTITLE2=Like A Coat From The Cold
TTITLE3=Instant Coffee Blues
TTITLE4=Let Him Roll
TTITLE5=Rita Ballou
TTITLE6=L.A. Freeway
TTITLE7=She Ain't Goin' Nowhere
TTITLE8=A Nickel For The Fiddler
TTITLE9=That Old Time Feelin'
TTITLE10=Texas Cookin'
TTITLE11=Anyhow, I Love You
TTITLE12=Virginia's Real
TTITLE13=Broken Hearted People
TTITLE14=Black Haired Boy
TTITLE15=Me I'm Feelin' The Same
TTITLE16=The Ballad Of Laverne And Captain Flint
TTITLE17=Don't Let The Sunshine Fool You
TTITLE18=The Last Gunfighter Ballad
TTITLE19=Fools For Each Other
EXTD=Old #1 ('75): 1-10 - Texas Cookin' ('76): 11-19 - Single: 20 ('78)
EXTT0=
EXTT1=
EXTT2=
EXTT3=
EXTT4=
EXTT5=
EXTT6=
EXTT7=
EXTT8=
EXTT9=
EXTT10=
EXTT11=
EXTT12=
EXTT13=
EXTT14=
EXTT15=
EXTT16=
EXTT17=
EXTT18=
EXTT19=
PLAYORDER=
